# Blender 4.1.1
# www.blender.org
mtllib square button-untextured.mtl
o Cube
v 2.308716 -1.000000 -3.194068
v 3.194068 -1.000000 -2.308716
v 3.194068 -1.000000 2.308716
v 2.308716 -1.000000 3.194068
v -3.194068 -1.000000 -2.308716
v -2.308716 -1.000000 -3.194068
v -2.308716 -1.000000 3.194068
v -3.194068 -1.000000 2.308716
v 2.329048 1.154153 -1.950413
v 3.194068 0.937728 -2.308716
v 1.950413 1.154153 -2.329048
v 2.308716 0.937728 -3.194068
v 1.950413 1.154153 2.329048
v 2.308716 0.937728 3.194068
v 2.329048 1.154153 1.950413
v 3.194068 0.937728 2.308716
v -1.950413 1.154153 -2.329048
v -2.308716 0.937728 -3.194068
v -2.329048 1.154153 -1.950413
v -3.194068 0.937728 -2.308716
v -2.329048 1.154153 1.950413
v -3.194068 0.937728 2.308716
v -1.950413 1.154153 2.329048
v -2.308716 0.937728 3.194068
v 2.226328 1.154153 -2.995167
v 2.995167 1.154153 -2.226328
v -2.226328 1.154153 2.995167
v -2.995167 1.154153 2.226328
v 2.995167 1.154153 2.226328
v 2.226328 1.154153 2.995167
v -2.995167 1.154153 -2.226328
v -2.226328 1.154153 -2.995167
v 2.018846 1.154153 -2.494260
v 2.494260 1.154153 -2.018846
v -2.018846 1.154153 2.494260
v -2.494260 1.154153 2.018846
v 2.494260 1.154153 2.018846
v 2.018846 1.154153 2.494260
v -2.494260 1.154153 -2.018846
v -2.018846 1.154153 -2.494260
v 1.950413 2.365220 -2.329048
v 2.329048 2.365220 -1.950413
v -1.950413 2.365220 2.329048
v -2.329048 2.365220 1.950413
v 2.329048 2.365220 1.950413
v 1.950413 2.365220 2.329048
v -2.329048 2.365220 -1.950413
v -1.950413 2.365220 -2.329048
v 2.018846 0.447994 -2.494260
v 2.494260 0.447994 -2.018846
v -2.018846 0.447994 2.494260
v -2.494260 0.447994 2.018846
v 2.494260 0.447994 2.018846
v 2.018846 0.447994 2.494260
v -2.494260 0.447994 -2.018846
v -2.018846 0.447994 -2.494260
v 1.950413 0.447994 -2.329048
v 2.329048 0.447994 -1.950413
v -1.950413 0.447994 2.329048
v -2.329048 0.447994 1.950413
v 2.329048 0.447994 1.950413
v 1.950413 0.447994 2.329048
v -2.329048 0.447994 -1.950413
v -1.950413 0.447994 -2.329048
vn -0.0000 -1.0000 -0.0000
vn -0.7071 -0.0000 0.7071
vn -0.7071 -0.0000 -0.7071
vn -0.0000 -0.0000 -1.0000
vn -1.0000 -0.0000 -0.0000
vn 1.0000 -0.0000 -0.0000
vn -0.0000 -0.0000 1.0000
vn 0.7071 -0.0000 0.7071
vn 0.5206 0.6767 -0.5206
vn -0.5206 0.6767 0.5206
vn 0.5206 0.6767 0.5206
vn -0.5206 0.6767 -0.5206
vn -0.0000 0.6767 -0.7363
vn 0.7363 0.6767 -0.0000
vn -0.7363 0.6767 -0.0000
vn -0.0000 0.6767 0.7363
vn 0.7071 -0.0000 -0.7071
vn -0.0000 1.0000 -0.0000
vt 0.125000 0.534648
vt 0.159648 0.500000
vt 0.340352 0.500000
vt 0.375000 0.534648
vt 0.375000 0.715352
vt 0.340352 0.750000
vt 0.159648 0.750000
vt 0.125000 0.715352
vt 0.375000 0.000000
vt 0.617216 0.000000
vt 0.617216 0.034648
vt 0.375000 0.034648
vt 0.617216 0.284648
vt 0.375000 0.284648
vt 0.375000 0.215352
vt 0.617216 0.215352
vt 0.617216 0.465352
vt 0.375000 0.465352
vt 0.841147 0.548670
vt 0.841147 0.701330
vt 0.617216 0.534648
vt 0.617216 0.715352
vt 0.375000 0.784648
vt 0.617216 0.784648
vt 0.617216 0.965352
vt 0.375000 0.965352
vt 0.662873 0.507784
vt 0.632784 0.537873
vt 0.625000 0.534648
vt 0.659648 0.500000
vt 0.837127 0.742216
vt 0.867216 0.712128
vt 0.875000 0.715352
vt 0.840352 0.750000
vt 0.632784 0.712128
vt 0.662873 0.742216
vt 0.659648 0.750000
vt 0.625000 0.715352
vt 0.867216 0.537873
vt 0.837127 0.507784
vt 0.840352 0.500000
vt 0.875000 0.534648
vt 0.617216 0.534648
vt 0.670992 0.527387
vt 0.652387 0.545992
vt 0.829008 0.722613
vt 0.847613 0.704008
vt 0.652387 0.704008
vt 0.670992 0.722613
vt 0.847613 0.545992
vt 0.829008 0.527387
vt 0.826329 0.533853
vt 0.673670 0.533853
vt 0.658853 0.701330
vt 0.673670 0.716147
vt 0.826329 0.716147
vt 0.658853 0.548671
s 0
usemtl Material
f 5/1/1 6/2/1 1/3/1 2/4/1 3/5/1 4/6/1 7/7/1 8/8/1
f 7/9/2 24/10/2 22/11/2 8/12/2
f 18/13/3 6/14/3 5/15/3 20/16/3
f 6/14/4 18/13/4 12/17/4 1/18/4
f 19/19/5 21/20/5 44/20/5 47/19/5
f 2/4/6 10/21/6 16/22/6 3/5/6
f 4/23/7 14/24/7 24/25/7 7/26/7
f 8/12/5 22/11/5 20/16/5 5/15/5
f 14/24/8 4/23/8 3/5/8 16/22/8
f 25/27/9 26/28/9 10/29/9 12/30/9
f 27/31/10 28/32/10 22/33/10 24/34/10
f 29/35/11 30/36/11 14/37/11 16/38/11
f 31/39/12 32/40/12 18/41/12 20/42/12
f 32/40/13 25/27/13 12/30/13 18/41/13
f 26/28/14 29/35/14 16/22/14 10/21/14
f 20/42/15 22/33/15 28/32/15 31/39/15
f 24/34/16 14/37/16 30/36/16 27/31/16
f 10/43/17 2/4/17 1/18/17 12/17/17
f 33/44/18 34/45/18 26/28/18 25/27/18
f 35/46/18 36/47/18 28/32/18 27/31/18
f 37/48/18 38/49/18 30/36/18 29/35/18
f 39/50/18 40/51/18 32/40/18 31/39/18
f 40/51/18 33/44/18 25/27/18 32/40/18
f 34/45/18 37/48/18 29/35/18 26/28/18
f 36/47/18 39/50/18 31/39/18 28/32/18
f 38/49/18 35/46/18 27/31/18 30/36/18
f 17/52/4 11/53/4 57/53/4 64/52/4
f 37/48/5 34/45/5 50/45/5 53/48/5
f 19/19/3 17/52/3 64/52/3 63/19/3
f 33/44/7 40/51/7 56/51/7 49/44/7
f 15/54/8 13/55/8 62/55/8 61/54/8
f 40/51/8 39/50/8 55/50/8 56/51/8
f 23/56/2 21/20/2 60/20/2 59/56/2
f 38/49/3 37/48/3 53/48/3 54/49/3
f 42/57/18 41/53/18 48/52/18 47/19/18 44/20/18 43/56/18 46/55/18 45/54/18
f 11/53/4 17/52/4 48/52/4 41/53/4
f 13/55/8 15/54/8 45/54/8 46/55/8
f 9/57/17 11/53/17 41/53/17 42/57/17
f 23/56/7 13/55/7 46/55/7 43/56/7
f 15/54/6 9/57/6 42/57/6 45/54/6
f 17/52/3 19/19/3 47/19/3 48/52/3
f 21/20/2 23/56/2 43/56/2 44/20/2
f 57/53/18 58/57/18 50/45/18 49/44/18
f 59/56/18 60/20/18 52/47/18 51/46/18
f 61/54/18 62/55/18 54/49/18 53/48/18
f 63/19/18 64/52/18 56/51/18 55/50/18
f 64/52/18 57/53/18 49/44/18 56/51/18
f 58/57/18 61/54/18 53/48/18 50/45/18
f 60/20/18 63/19/18 55/50/18 52/47/18
f 62/55/18 59/56/18 51/46/18 54/49/18
f 39/50/6 36/47/6 52/47/6 55/50/6
f 9/57/6 15/54/6 61/54/6 58/57/6
f 35/46/4 38/49/4 54/49/4 51/46/4
f 21/20/5 19/19/5 63/19/5 60/20/5
f 34/45/2 33/44/2 49/44/2 50/45/2
f 13/55/7 23/56/7 59/56/7 62/55/7
f 36/47/17 35/46/17 51/46/17 52/47/17
f 11/53/17 9/57/17 58/57/17 57/53/17
