# Blender 4.1.1
# www.blender.org
mtllib cone.mtl
o Cone
v -1.000000 -0.000000 -1.000000
v -1.000000 -0.239316 -0.970942
v -1.000000 -0.464723 -0.885456
v -1.000000 -0.663123 -0.748511
v -1.000000 -0.822984 -0.568065
v -1.000000 -0.935016 -0.354605
v -1.000000 -0.992709 -0.120537
v -1.000000 -0.992709 0.120537
v -1.000000 -0.935016 0.354605
v -1.000000 -0.822984 0.568065
v -1.000000 -0.663123 0.748511
v -1.000000 -0.464723 0.885456
v -1.000000 -0.239316 0.970942
v -1.000000 -0.000000 1.000000
v -1.000000 0.239316 0.970942
v -1.000000 0.464723 0.885456
v -1.000000 0.663123 0.748511
v -1.000000 0.822984 0.568065
v -1.000000 0.935016 0.354605
v -1.000000 0.992709 0.120537
v -1.000000 0.992709 -0.120537
v -1.000000 0.935016 -0.354605
v -1.000000 0.822984 -0.568065
v -1.000000 0.663123 -0.748511
v -1.000000 0.464723 -0.885456
v -1.000000 0.239316 -0.970942
v 1.000000 0.000000 0.000000
vn 0.4446 -0.1080 -0.8892
vn 0.4446 -0.3176 -0.8375
vn 0.4446 -0.5088 -0.7372
vn 0.4446 -0.6705 -0.5940
vn 0.4446 -0.7931 -0.4163
vn 0.4446 -0.8697 -0.2144
vn 0.4446 -0.8957 -0.0000
vn 0.4446 -0.8697 0.2144
vn 0.4446 -0.7931 0.4163
vn 0.4446 -0.6705 0.5940
vn 0.4446 -0.5088 0.7372
vn 0.4446 -0.3176 0.8375
vn 0.4446 -0.1080 0.8892
vn 0.4446 0.1080 0.8892
vn 0.4446 0.3176 0.8375
vn 0.4446 0.5088 0.7372
vn 0.4446 0.6705 0.5940
vn 0.4446 0.7931 0.4163
vn 0.4446 0.8697 0.2144
vn 0.4446 0.8957 -0.0000
vn 0.4446 0.8697 -0.2144
vn 0.4446 0.7931 -0.4163
vn 0.4446 0.6705 -0.5940
vn 0.4446 0.5088 -0.7372
vn -1.0000 -0.0000 -0.0000
vn 0.4446 0.3176 -0.8375
vn 0.4446 0.1080 -0.8892
vt 0.250000 0.490000
vt 0.250000 0.250000
vt 0.307436 0.483026
vt 0.361534 0.462509
vt 0.409149 0.429643
vt 0.447516 0.386336
vt 0.474404 0.335105
vt 0.488250 0.278929
vt 0.488250 0.221071
vt 0.474404 0.164895
vt 0.447516 0.113664
vt 0.409149 0.070357
vt 0.361534 0.037491
vt 0.307436 0.016974
vt 0.250000 0.010000
vt 0.192564 0.016974
vt 0.138466 0.037491
vt 0.090851 0.070357
vt 0.052484 0.113664
vt 0.025596 0.164895
vt 0.011750 0.221071
vt 0.011750 0.278929
vt 0.025596 0.335105
vt 0.052484 0.386336
vt 0.090851 0.429643
vt 0.138466 0.462509
vt 0.750000 0.490000
vt 0.807436 0.483026
vt 0.861534 0.462509
vt 0.909149 0.429643
vt 0.947516 0.386336
vt 0.974404 0.335105
vt 0.988250 0.278929
vt 0.988250 0.221071
vt 0.974404 0.164895
vt 0.947516 0.113664
vt 0.909149 0.070357
vt 0.861534 0.037491
vt 0.807436 0.016974
vt 0.750000 0.010000
vt 0.692564 0.016974
vt 0.638466 0.037491
vt 0.590851 0.070357
vt 0.552484 0.113664
vt 0.525596 0.164895
vt 0.511750 0.221071
vt 0.511750 0.278929
vt 0.525596 0.335105
vt 0.552484 0.386336
vt 0.590851 0.429643
vt 0.638466 0.462509
vt 0.692564 0.483026
vt 0.192564 0.483026
s 0
f 1/1/1 27/2/1 2/3/1
f 2/3/2 27/2/2 3/4/2
f 3/4/3 27/2/3 4/5/3
f 4/5/4 27/2/4 5/6/4
f 5/6/5 27/2/5 6/7/5
f 6/7/6 27/2/6 7/8/6
f 7/8/7 27/2/7 8/9/7
f 8/9/8 27/2/8 9/10/8
f 9/10/9 27/2/9 10/11/9
f 10/11/10 27/2/10 11/12/10
f 11/12/11 27/2/11 12/13/11
f 12/13/12 27/2/12 13/14/12
f 13/14/13 27/2/13 14/15/13
f 14/15/14 27/2/14 15/16/14
f 15/16/15 27/2/15 16/17/15
f 16/17/16 27/2/16 17/18/16
f 17/18/17 27/2/17 18/19/17
f 18/19/18 27/2/18 19/20/18
f 19/20/19 27/2/19 20/21/19
f 20/21/20 27/2/20 21/22/20
f 21/22/21 27/2/21 22/23/21
f 22/23/22 27/2/22 23/24/22
f 23/24/23 27/2/23 24/25/23
f 24/25/24 27/2/24 25/26/24
f 1/27/25 2/28/25 3/29/25 4/30/25 5/31/25 6/32/25 7/33/25 8/34/25 9/35/25 10/36/25 11/37/25 12/38/25 13/39/25 14/40/25 15/41/25 16/42/25 17/43/25 18/44/25 19/45/25 20/46/25 21/47/25 22/48/25 23/49/25 24/50/25 25/51/25 26/52/25
f 25/26/26 27/2/26 26/53/26
f 26/53/27 27/2/27 1/1/27
